<?xml version="1.0" encoding="UTF-8"?>
<svg id="b" data-name="Layer 2" xmlns="http://www.w3.org/2000/svg" viewBox="0 0 381.81973 80.56187">
  <defs>
    <style>
      .d {
        fill: #fff;
      }
    </style>
  </defs>
  <g id="c" data-name="Layer 1 copy 3">
    <g>
      <path class="d" d="M29.94017,20.0724c.51585-.98921,.80715-2.11497,.80715-3.31051,0-3.96593-3.21037-7.17629-7.1763-7.17629-3.96289,0-7.17327,3.21036-7.17327,7.17629,0,3.96289,3.21037,7.17327,7.17327,7.17327,1.17734,0,2.28791-.28219,3.26803-.78591l16.47969,16.47969,4.36949,4.36951h13.51512l16.47665,16.47665v12.48342c0,1.7296-.93156,3.24375-2.3213,4.06607l-16.72547-16.72245c.36109-.66453,.56743-1.42614,.56743-2.23633,0-2.58527-2.09674-4.68204-4.68508-4.68204s-4.68508,2.09676-4.68508,4.68204c0,2.58833,2.09676,4.68508,4.68508,4.68508,.84053,0,1.62948-.2215,2.31221-.60991l15.53902,15.53904h-12.02523l-23.216-23.21904c.50979-.98313,.79804-2.09978,.79804-3.28621,0-3.96289-3.21339-7.1763-7.17629-7.1763s-7.1763,3.21341-7.1763,7.1763,3.21341,7.17629,7.1763,7.17629c1.18643,0,2.30612-.28827,3.28925-.79804l20.12701,20.12701H4.72149c-2.60654,0-4.72149-2.11495-4.72149-4.72149V4.72149C0,2.11495,2.11495,0,4.72149,0H72.95851c2.60654,0,4.72149,2.11495,4.72149,4.72149V54.2971l-14.66818-14.66818h-13.5151L29.94017,20.0724Z"/>
      <g>
        <path class="d" d="M117.14674,26.32652c1.26074,1.08594,1.89258,2.74316,1.89258,4.97266,0,3.31543-1.20312,5.63965-3.6084,6.97363-2.40527,1.33496-5.76367,2.00195-10.07617,2.00195h-10.2959V9.69468h9.1084c4.39941,0,7.76562,.60938,10.09766,1.82617,2.33203,1.21777,3.49805,3.23438,3.49805,6.0498,0,1.79004-.53516,3.21973-1.60645,4.29004-1.07031,1.07129-2.39746,1.81152-3.98145,2.22266,2.05273,.41113,3.70996,1.15918,4.97168,2.24316Zm-13.94824-10.95508v6.37988h2.1123c1.43652,0,2.49316-.26465,3.16797-.79199,.6748-.52832,1.01172-1.37891,1.01172-2.55273,0-1.08398-.35938-1.8623-1.07715-2.33203-.71973-.46875-1.88574-.70312-3.49805-.70312h-1.7168Zm6.11621,18.3252c.87988-.5127,1.32031-1.47363,1.32031-2.88184,0-1.34863-.41113-2.32422-1.23242-2.92578-.82129-.60059-2.00977-.90234-3.56348-.90234h-2.64062v7.48047h2.2002c1.73047,0,3.03613-.25684,3.91602-.77051Z"/>
        <path class="d" d="M129.3567,5.4271c.83594,.82129,1.25391,1.84766,1.25391,3.08008,0,1.23145-.41797,2.25879-1.25391,3.08008-.83691,.82129-1.91406,1.23145-3.23438,1.23145s-2.39844-.41016-3.23438-1.23145-1.25391-1.84863-1.25391-3.08008c0-1.23242,.41797-2.25879,1.25391-3.08008s1.91406-1.23242,3.23438-1.23242,2.39746,.41113,3.23438,1.23242Zm.68164,11.39551v23.45215h-7.83203V16.82261h7.83203Z"/>
        <path class="d" d="M150.19069,39.1312c-.91016,.64551-1.96582,1.12891-3.16797,1.45215-1.20312,.32227-2.37598,.4834-3.52051,.4834-5.42676,0-8.13965-2.99219-8.13965-8.97559v-9.90039h-3.03613v-5.36816h3.03613v-4.97168l7.83203-.92383v5.89551h5.32422l-.79199,5.36816h-4.53223v9.8125c0,1.05566,.16797,1.80371,.50586,2.24414,.33691,.43945,.84277,.65918,1.51758,.65918,.82129,0,1.61328-.21973,2.37598-.65918l2.59668,4.88379Z"/>
        <path class="d" d="M165.61256,16.82261c1.54004,.52832,2.85254,1.24707,3.9375,2.15625l-2.81543,4.3125c-1.87793-1.17285-3.76953-1.76074-5.67578-1.76074-.82227,0-1.43066,.12598-1.82617,.37402-.39648,.25-.59473,.59473-.59473,1.03418,0,.38184,.10254,.68945,.30859,.92383,.20508,.23535,.6377,.49219,1.29785,.77051,.66016,.2793,1.70801,.6377,3.14648,1.07812,2.4043,.7041,4.17969,1.62109,5.32324,2.75,1.14453,1.12891,1.71582,2.70605,1.71582,4.72949,0,1.58398-.46191,2.9707-1.38574,4.1582-.92383,1.18848-2.2002,2.10547-3.82812,2.75s-3.46875,.96777-5.52148,.96777c-1.99512,0-3.86523-.31543-5.61035-.94531-1.74512-.63086-3.21973-1.50293-4.42188-2.61816l3.74023-4.18066c.90918,.7041,1.88379,1.26172,2.92578,1.67285,1.04102,.41113,2.08984,.61523,3.14648,.61523,.93848,0,1.66406-.15332,2.17773-.46191,.5127-.30762,.76953-.76953,.76953-1.38574,0-.46875-.10938-.83594-.33008-1.09961-.21973-.26465-.6377-.52051-1.25391-.77051-.61621-.24902-1.67188-.59375-3.16797-1.03418-4.54688-1.34863-6.81934-3.82812-6.81934-7.43555,0-1.37891,.39551-2.63281,1.1875-3.76172s1.92871-2.0166,3.41016-2.66211c1.48047-.64551,3.24805-.96875,5.30176-.96875,1.70117,0,3.32227,.26465,4.8623,.79199Z"/>
        <path class="d" d="M203.18873,34.95054c.21973,.41113,.6084,.71973,1.16602,.9248l-1.58398,5.05957c-1.49609-.11719-2.72168-.42578-3.6748-.92383s-1.72363-1.29004-2.30957-2.37598c-1.49609,2.28809-3.85742,3.43164-7.08398,3.43164-2.31738,0-4.17285-.68164-5.56641-2.0459s-2.08984-3.13086-2.08984-5.30176c0-2.58105,.95312-4.56055,2.86035-5.94043,1.90625-1.37793,4.66406-2.06738,8.27148-2.06738h2.02441v-.79199c0-1.26074-.26367-2.11914-.79199-2.57422-.52832-.4541-1.48145-.68164-2.86035-.68164-.7334,0-1.64941,.10938-2.75,.3291-1.09961,.2207-2.22168,.52148-3.36621,.90234l-1.71582-5.05957c1.4082-.58691,2.91895-1.03418,4.53223-1.34277,1.61328-.30762,3.10938-.46191,4.48828-.46191,3.51953,0,6.08594,.69727,7.7002,2.09082,1.6123,1.39355,2.41992,3.52734,2.41992,6.40137v8.53613c0,.85156,.10938,1.48145,.33008,1.8916Zm-9.32812,.11035c.54199-.33691,.98926-.79883,1.3418-1.38574v-3.78418h-1.32031c-1.4082,0-2.44922,.25684-3.12402,.77051-.6748,.5127-1.01172,1.2832-1.01172,2.30957,0,.79199,.20508,1.42285,.61621,1.8916,.41016,.46973,.98242,.7041,1.71582,.7041,.64453,0,1.23926-.16797,1.78223-.50586Z"/>
        <path class="d" d="M226.83717,17.87925c1.14453,1.23145,1.7168,2.96289,1.7168,5.19141v17.2041h-7.83203v-15.7959c0-1.02637-.14746-1.73828-.44043-2.13379-.29395-.39648-.7334-.59375-1.32031-.59375-1.23145,0-2.40527,.89453-3.51953,2.68359v15.83984h-7.83203V16.82261h6.82031l.57129,2.64062c1.05664-1.17285,2.15625-2.03906,3.30078-2.59668,1.14355-.55664,2.41992-.83594,3.82715-.83594,1.99512,0,3.56445,.61621,4.70801,1.84863Z"/>
        <path class="d" d="M254.73366,7.58335V40.27476h-6.95215l-.30859-2.5957c-.70312,.99707-1.60547,1.81152-2.70508,2.44238-1.10059,.62988-2.41406,.94531-3.93848,.94531-2.93359,0-5.14844-1.11426-6.64355-3.34375-1.49609-2.22852-2.24414-5.30859-2.24414-9.24023,0-2.4043,.40234-4.55371,1.20996-6.44531,.80664-1.89258,1.94238-3.36621,3.41016-4.42285,1.46582-1.05566,3.15234-1.58398,5.05957-1.58398,2.1123,0,3.87207,.67578,5.28027,2.02441V6.79136l7.83203,.79199Zm-7.83203,25.51953v-9.81152c-.49902-.55762-.9834-.96875-1.45215-1.23242-.46973-.26367-1.01172-.39551-1.62793-.39551-1.17383,0-2.10547,.5498-2.79395,1.64941-.68945,1.10059-1.03418,2.83789-1.03418,5.21387,0,2.64062,.29297,4.45215,.87988,5.43457s1.42285,1.47363,2.50781,1.47363c1.4082,0,2.58105-.77637,3.52051-2.33203Z"/>
        <path class="d" d="M291.51686,26.32652c1.26074,1.08594,1.89258,2.74316,1.89258,4.97266,0,3.31543-1.20312,5.63965-3.6084,6.97363-2.40527,1.33496-5.76367,2.00195-10.07617,2.00195h-10.2959V9.69468h9.1084c4.39941,0,7.76562,.60938,10.09766,1.82617,2.33203,1.21777,3.49805,3.23438,3.49805,6.0498,0,1.79004-.53516,3.21973-1.60645,4.29004-1.07031,1.07129-2.39746,1.81152-3.98145,2.22266,2.05273,.41113,3.70996,1.15918,4.97168,2.24316Zm-13.94824-10.95508v6.37988h2.1123c1.43652,0,2.49316-.26465,3.16797-.79199,.6748-.52832,1.01172-1.37891,1.01172-2.55273,0-1.08398-.35938-1.8623-1.07715-2.33203-.71973-.46875-1.88574-.70312-3.49805-.70312h-1.7168Zm6.11621,18.3252c.87988-.5127,1.32031-1.47363,1.32031-2.88184,0-1.34863-.41113-2.32422-1.23242-2.92578-.82129-.60059-2.00977-.90234-3.56348-.90234h-2.64062v7.48047h2.2002c1.73047,0,3.03613-.25684,3.91602-.77051Z"/>
        <path class="d" d="M310.56862,40.27476c-.96875,3.13867-2.58984,5.53711-4.8623,7.19434-2.27344,1.65723-5.27344,2.55859-8.99805,2.70605l-.83594-5.41211c2.22852-.23535,3.88672-.68164,4.97168-1.3418s1.93652-1.70898,2.55273-3.14648h-2.68457l-6.86426-23.45215h8.31641l3.56445,18.56836,4.0918-18.56836h8.05176l-7.30371,23.45215Z"/>
        <path class="d" d="M335.29616,39.1312c-.91016,.64551-1.96582,1.12891-3.16797,1.45215-1.20312,.32227-2.37598,.4834-3.52051,.4834-5.42676,0-8.13965-2.99219-8.13965-8.97559v-9.90039h-3.03613v-5.36816h3.03613v-4.97168l7.83203-.92383v5.89551h5.32422l-.79199,5.36816h-4.53223v9.8125c0,1.05566,.16797,1.80371,.50586,2.24414,.33691,.43945,.84277,.65918,1.51758,.65918,.82129,0,1.61328-.21973,2.37598-.65918l2.59668,4.88379Z"/>
        <path class="d" d="M357.29616,30.8148h-14.34375c.2041,1.79004,.70996,3.01465,1.51758,3.67383,.80664,.66016,1.95801,.99023,3.4541,.99023,.87988,0,1.75195-.16797,2.61816-.50586,.86426-.33691,1.81055-.8584,2.83789-1.56152l3.16797,4.31152c-1.23242,1.02734-2.64062,1.84082-4.22461,2.44238-1.58398,.60059-3.2998,.90137-5.14746,.90137-3.98926,0-7.01855-1.12207-9.08594-3.36621-2.06836-2.24316-3.10254-5.25781-3.10254-9.04199,0-2.37598,.43262-4.5166,1.29883-6.42383,.86426-1.90625,2.14844-3.41699,3.84961-4.53125,1.70117-1.11523,3.75391-1.67285,6.16016-1.67285,3.43164,0,6.14453,1.06348,8.13965,3.19043,1.99414,2.12695,2.99219,5.11133,2.99219,8.9541,0,.17578-.04395,1.05566-.13184,2.63965Zm-7.56836-4.83984c-.0293-1.55469-.29297-2.75684-.79199-3.6084-.49902-.84961-1.33496-1.27539-2.50781-1.27539-1.08594,0-1.90723,.38184-2.46387,1.14355-.55762,.76367-.91016,2.09766-1.05664,4.00391h6.82031v-.26367Z"/>
        <path class="d" d="M374.30202,16.82261c1.54004,.52832,2.85254,1.24707,3.9375,2.15625l-2.81543,4.3125c-1.87793-1.17285-3.76953-1.76074-5.67578-1.76074-.82227,0-1.43066,.12598-1.82617,.37402-.39648,.25-.59473,.59473-.59473,1.03418,0,.38184,.10254,.68945,.30859,.92383,.20508,.23535,.6377,.49219,1.29785,.77051,.66016,.2793,1.70801,.6377,3.14648,1.07812,2.4043,.7041,4.17969,1.62109,5.32324,2.75,1.14453,1.12891,1.71582,2.70605,1.71582,4.72949,0,1.58398-.46191,2.9707-1.38574,4.1582-.92383,1.18848-2.2002,2.10547-3.82812,2.75s-3.46875,.96777-5.52148,.96777c-1.99512,0-3.86523-.31543-5.61035-.94531-1.74512-.63086-3.21973-1.50293-4.42188-2.61816l3.74023-4.18066c.90918,.7041,1.88379,1.26172,2.92578,1.67285,1.04102,.41113,2.08984,.61523,3.14648,.61523,.93848,0,1.66406-.15332,2.17773-.46191,.5127-.30762,.76953-.76953,.76953-1.38574,0-.46875-.10938-.83594-.33008-1.09961-.21973-.26465-.6377-.52051-1.25391-.77051-.61621-.24902-1.67188-.59375-3.16797-1.03418-4.54688-1.34863-6.81934-3.82812-6.81934-7.43555,0-1.37891,.39551-2.63281,1.1875-3.76172s1.92871-2.0166,3.41016-2.66211c1.48047-.64551,3.24805-.96875,5.30176-.96875,1.70117,0,3.32227,.26465,4.8623,.79199Z"/>
      </g>
      <g>
        <path class="d" d="M91.63307,71.8021l12.05957-19.7998h2.9707l2.87988,19.7998h-2.37012l-.83984-5.66992h-8.61035l-3.38965,5.66992h-2.7002Zm7.46973-7.91992h6.92969l-1.34961-9.30078-5.58008,9.30078Z"/>
        <path class="d" d="M121.39284,72.04234c-1.48047,0-2.81543-.22559-4.00488-.67578-1.19043-.44922-2.20117-1.10449-3.03027-1.96484-.83008-.85938-1.46582-1.92969-1.90527-3.20996l2.40039-1.2002c.33984,1.16016,.83984,2.0957,1.5,2.80566s1.43945,1.21973,2.33984,1.5293c.89941,.31055,1.87012,.46582,2.91016,.46582,.97949,0,1.7998-.16504,2.45996-.49512s1.1543-.75977,1.48438-1.29004,.49512-1.0957,.49512-1.69531c0-.73926-.23535-1.32031-.70508-1.74023s-1.1543-.75977-2.05469-1.01953l-3.20996-.90039c-1.02051-.2998-1.88574-.68945-2.59473-1.16992-.71094-.47949-1.25-1.0498-1.62012-1.70996s-.55566-1.37988-.55566-2.16016c0-1.09961,.29492-2.09961,.88574-3,.58984-.89941,1.41992-1.61426,2.48926-2.14453,1.07031-.53027,2.33496-.79492,3.7959-.79492,1.93945,0,3.55957,.40039,4.85938,1.19922,1.2998,.80078,2.23047,2.02051,2.79004,3.66016l-2.39941,1.16992c-.26074-1.03906-.6709-1.83008-1.23047-2.37012-.56055-.53906-1.2002-.90918-1.91992-1.10938s-1.46973-.2998-2.25-.2998c-1,0-1.84082,.14941-2.52051,.44922-.67969,.30078-1.18457,.70117-1.51465,1.2002-.33008,.5-.49512,1.0498-.49512,1.65039,0,.67969,.25977,1.29492,.78027,1.84473,.51953,.55078,1.21973,.95508,2.09961,1.21484l3.57031,1.02051c1.45996,.41992,2.54004,1.01465,3.24023,1.78516,.69922,.76953,1.0498,1.71484,1.0498,2.83496,0,1.24023-.3252,2.32031-.97461,3.23926-.65039,.9209-1.51562,1.63086-2.5957,2.13086s-2.26953,.75-3.56934,.75Z"/>
        <path class="d" d="M139.96315,72.04234c-1.48047,0-2.81543-.22559-4.00488-.67578-1.19043-.44922-2.20117-1.10449-3.03027-1.96484-.83008-.85938-1.46582-1.92969-1.90527-3.20996l2.40039-1.2002c.33984,1.16016,.83984,2.0957,1.5,2.80566s1.43945,1.21973,2.33984,1.5293c.89941,.31055,1.87012,.46582,2.91016,.46582,.97949,0,1.7998-.16504,2.45996-.49512s1.1543-.75977,1.48438-1.29004,.49512-1.0957,.49512-1.69531c0-.73926-.23535-1.32031-.70508-1.74023s-1.1543-.75977-2.05469-1.01953l-3.20996-.90039c-1.02051-.2998-1.88574-.68945-2.59473-1.16992-.71094-.47949-1.25-1.0498-1.62012-1.70996s-.55566-1.37988-.55566-2.16016c0-1.09961,.29492-2.09961,.88574-3,.58984-.89941,1.41992-1.61426,2.48926-2.14453,1.07031-.53027,2.33496-.79492,3.7959-.79492,1.93945,0,3.55957,.40039,4.85938,1.19922,1.2998,.80078,2.23047,2.02051,2.79004,3.66016l-2.39941,1.16992c-.26074-1.03906-.6709-1.83008-1.23047-2.37012-.56055-.53906-1.2002-.90918-1.91992-1.10938s-1.46973-.2998-2.25-.2998c-1,0-1.84082,.14941-2.52051,.44922-.67969,.30078-1.18457,.70117-1.51465,1.2002-.33008,.5-.49512,1.0498-.49512,1.65039,0,.67969,.25977,1.29492,.78027,1.84473,.51953,.55078,1.21973,.95508,2.09961,1.21484l3.57031,1.02051c1.45996,.41992,2.54004,1.01465,3.24023,1.78516,.69922,.76953,1.0498,1.71484,1.0498,2.83496,0,1.24023-.3252,2.32031-.97461,3.23926-.65039,.9209-1.51562,1.63086-2.5957,2.13086s-2.26953,.75-3.56934,.75Z"/>
        <path class="d" d="M159.19362,72.10191c-1.47949,0-2.84473-.33496-4.09473-1.00488s-2.25-1.65527-3-2.95508-1.125-2.87988-1.125-4.74023c0-1.54004,.21973-3.00977,.66016-4.41016,.43945-1.39941,1.08496-2.64453,1.93457-3.73438,.85059-1.08984,1.91016-1.95508,3.18066-2.5957,1.26953-.63965,2.72461-.95996,4.36523-.95996,1.47949,0,2.83496,.34082,4.06445,1.02051,1.23047,.67969,2.21484,1.66504,2.95508,2.95508,.73926,1.29004,1.11035,2.86523,1.11035,4.72461,0,1.52051-.21582,2.98047-.64551,4.37988-.42969,1.40039-1.07031,2.65039-1.91992,3.75-.85059,1.10059-1.90039,1.9707-3.14941,2.61035-1.25098,.64062-2.69531,.95996-4.33594,.95996Zm.27051-2.28027c1.2002,0,2.25-.25977,3.15039-.7793,.89941-.52051,1.6543-1.22559,2.26465-2.11523,.60938-.88965,1.06934-1.88477,1.37988-2.98535,.30957-1.09961,.46484-2.22949,.46484-3.38965,0-1.37988-.25-2.56055-.75-3.54004s-1.19043-1.72949-2.06934-2.25c-.88086-.52051-1.91016-.78027-3.09082-.78027-1.19922,0-2.25488,.25977-3.16504,.78027s-1.6748,1.21973-2.29492,2.09961c-.62012,.88086-1.08496,1.87012-1.39453,2.96973-.31055,1.10059-.46484,2.24023-.46484,3.4209,0,1.37988,.25,2.55957,.75,3.54004,.49902,.97949,1.19434,1.72949,2.08496,2.25,.88965,.51953,1.93457,.7793,3.13477,.7793Z"/>
        <path class="d" d="M181.12331,72.10191c-1.54004,0-2.94434-.31934-4.21484-.95996-1.27051-.63965-2.28516-1.58984-3.04492-2.84961-.75977-1.26074-1.13965-2.82031-1.13965-4.68066,0-1.47949,.21484-2.9248,.64453-4.33496s1.0752-2.68457,1.93555-3.8252c.85938-1.13965,1.9248-2.0498,3.19434-2.72949,1.27051-.67969,2.73535-1.02051,4.39551-1.02051,1.25977,0,2.37988,.2002,3.35938,.60059,.98047,.40039,1.81055,1.00977,2.49023,1.83008s1.18945,1.85938,1.53027,3.12012l-2.52051,.83984c-.33984-1.48047-.93457-2.54004-1.78418-3.18066-.85059-.63965-1.95508-.95996-3.31543-.95996-1.2002,0-2.25977,.27051-3.17969,.81055s-1.69043,1.25488-2.31055,2.14453c-.62012,.89062-1.08984,1.88574-1.41016,2.98535-.31934,1.09961-.47949,2.21973-.47949,3.36035,0,1.37988,.26465,2.55957,.79492,3.54004,.5293,.97949,1.25,1.73438,2.16016,2.26465s1.9248,.79492,3.04492,.79492c1.32031,0,2.35938-.27441,3.12012-.8252,.75977-.5498,1.39941-1.28516,1.91992-2.20508l2.30957,1.11035c-.82031,1.25977-1.81934,2.27051-3,3.03027-1.17969,.75977-2.67969,1.13965-4.5,1.13965Z"/>
        <path class="d" d="M198.40358,52.0023l-4.59082,19.7998h-2.39941l4.58984-19.7998h2.40039Z"/>
        <path class="d" d="M197.20338,71.8021l12.05957-19.7998h2.9707l2.87988,19.7998h-2.37012l-.83984-5.66992h-8.61035l-3.38965,5.66992h-2.7002Zm7.46973-7.91992h6.92969l-1.34961-9.30078-5.58008,9.30078Z"/>
        <path class="d" d="M233.77272,52.0023l-.54004,2.25h-6.68945l-4.0498,17.5498h-2.40039l4.0498-17.5498h-6.80957l.54004-2.25h15.89941Z"/>
        <path class="d" d="M239.80397,52.0023l-4.59082,19.7998h-2.39941l4.58984-19.7998h2.40039Z"/>
        <path class="d" d="M250.42311,72.10191c-1.47949,0-2.84473-.33496-4.09473-1.00488s-2.25-1.65527-3-2.95508-1.125-2.87988-1.125-4.74023c0-1.54004,.21973-3.00977,.66016-4.41016,.43945-1.39941,1.08496-2.64453,1.93457-3.73438,.85059-1.08984,1.91016-1.95508,3.18066-2.5957,1.26953-.63965,2.72461-.95996,4.36523-.95996,1.47949,0,2.83496,.34082,4.06445,1.02051,1.23047,.67969,2.21484,1.66504,2.95508,2.95508,.73926,1.29004,1.11035,2.86523,1.11035,4.72461,0,1.52051-.21582,2.98047-.64551,4.37988-.42969,1.40039-1.07031,2.65039-1.91992,3.75-.85059,1.10059-1.90039,1.9707-3.14941,2.61035-1.25098,.64062-2.69531,.95996-4.33594,.95996Zm.27051-2.28027c1.2002,0,2.25-.25977,3.15039-.7793,.89941-.52051,1.6543-1.22559,2.26465-2.11523,.60938-.88965,1.06934-1.88477,1.37988-2.98535,.30957-1.09961,.46484-2.22949,.46484-3.38965,0-1.37988-.25-2.56055-.75-3.54004s-1.19043-1.72949-2.06934-2.25c-.88086-.52051-1.91016-.78027-3.09082-.78027-1.19922,0-2.25488,.25977-3.16504,.78027s-1.6748,1.21973-2.29492,2.09961c-.62012,.88086-1.08496,1.87012-1.39453,2.96973-.31055,1.10059-.46484,2.24023-.46484,3.4209,0,1.37988,.25,2.55957,.75,3.54004,.49902,.97949,1.19434,1.72949,2.08496,2.25,.88965,.51953,1.93457,.7793,3.13477,.7793Z"/>
        <path class="d" d="M262.87331,71.8021l4.58984-19.7998h2.87988l4.91992,13.19922,1.29004,3.95996h.03027l.62988-3.17969,3.24023-13.97949h2.2793l-4.58984,19.7998h-2.84961l-5.00977-13.25977-1.23047-3.90039h-.03027l-.62988,3.17969-3.23926,13.98047h-2.28027Z"/>
      </g>
    </g>
  </g>
</svg>