<?xml version="1.0" encoding="UTF-8"?>
<svg id="b" data-name="Layer 2" xmlns="http://www.w3.org/2000/svg" xmlns:xlink="http://www.w3.org/1999/xlink" viewBox="0 0 381.81973 80.56219">
  <defs>
    <style>
      .e {
        fill: url(#d);
      }
    </style>
    <linearGradient id="d" data-name="BBA Gradient 2" x1="38.84" y1="1.38329" x2="38.84" y2="77.51781" gradientUnits="userSpaceOnUse">
      <stop offset="0" stop-color="#53bfe5"/>
      <stop offset=".5" stop-color="#3f93c8"/>
      <stop offset=".98792" stop-color="#3a76b3"/>
    </linearGradient>
  </defs>
  <g id="c" data-name="Layer 1 copy 3">
    <g>
      <path class="e" d="M29.94017,20.0724c.51585-.98921,.80715-2.11497,.80715-3.31051,0-3.96593-3.21037-7.17629-7.1763-7.17629-3.96289,0-7.17327,3.21036-7.17327,7.17629,0,3.96289,3.21037,7.17327,7.17327,7.17327,1.17734,0,2.28791-.28219,3.26803-.78591l16.47969,16.47969,4.36949,4.36951h13.51512l16.47665,16.47665v12.48342c0,1.7296-.93156,3.24375-2.3213,4.06607l-16.72547-16.72245c.36109-.66453,.56743-1.42614,.56743-2.23633,0-2.58527-2.09674-4.68204-4.68508-4.68204s-4.68508,2.09676-4.68508,4.68204c0,2.58833,2.09676,4.68508,4.68508,4.68508,.84053,0,1.62948-.2215,2.31221-.60991l15.53902,15.53904h-12.02523l-23.216-23.21904c.50979-.98313,.79804-2.09978,.79804-3.28621,0-3.96289-3.21339-7.1763-7.17629-7.1763s-7.1763,3.21341-7.1763,7.1763,3.21341,7.17629,7.1763,7.17629c1.18643,0,2.30612-.28827,3.28925-.79804l20.12701,20.12701H4.72149c-2.60654,0-4.72149-2.11495-4.72149-4.72149V4.72149C0,2.11495,2.11495,0,4.72149,0H72.95851c2.60654,0,4.72149,2.11495,4.72149,4.72149V54.2971l-14.66818-14.66818h-13.5151L29.94017,20.0724Z"/>
      <g>
        <path d="M117.14674,26.32684c1.26074,1.08594,1.89258,2.74316,1.89258,4.97168,0,3.31543-1.20312,5.63965-3.6084,6.97461s-5.76367,2.00195-10.07617,2.00195h-10.2959V9.69501h9.1084c4.39941,0,7.76562,.60938,10.09766,1.82617,2.33203,1.21729,3.49805,3.23389,3.49805,6.0498,0,1.78955-.53516,3.21973-1.60645,4.29004-1.07031,1.07129-2.39746,1.81152-3.98145,2.22217,2.05273,.41113,3.70996,1.15918,4.97168,2.24365Zm-13.94824-10.95557v6.37988h2.1123c1.43652,0,2.49316-.26416,3.16797-.79199,.6748-.52832,1.01172-1.37842,1.01172-2.55225,0-1.08447-.35938-1.8623-1.07715-2.33203-.71973-.46875-1.88574-.70361-3.49805-.70361h-1.7168Zm6.11621,18.32568c.87988-.5127,1.32031-1.47363,1.32031-2.88184,0-1.34961-.41113-2.3252-1.23242-2.92676-.82129-.6001-2.00977-.90137-3.56348-.90137h-2.64062v7.47949h2.2002c1.73047,0,3.03613-.25586,3.91602-.76953Z"/>
        <path d="M129.3567,5.42694c.83594,.82178,1.25391,1.84814,1.25391,3.08008s-.41797,2.25928-1.25391,3.08008c-.83691,.82178-1.91406,1.23193-3.23438,1.23193s-2.39844-.41016-3.23438-1.23193c-.83594-.8208-1.25391-1.84814-1.25391-3.08008s.41797-2.2583,1.25391-3.08008c.83594-.8208,1.91406-1.23193,3.23438-1.23193s2.39746,.41113,3.23438,1.23193Zm.68164,11.396v23.45215h-7.83203V16.82294h7.83203Z"/>
        <path d="M150.19069,39.13055c-.91016,.64551-1.96582,1.12988-3.16797,1.45215-1.20312,.32227-2.37598,.48438-3.52051,.48438-5.42676,0-8.13965-2.99219-8.13965-8.97656v-9.89941h-3.03613v-5.36816h3.03613v-4.97168l7.83203-.92432v5.896h5.32422l-.79199,5.36816h-4.53223v9.81152c0,1.05664,.16797,1.80469,.50586,2.24414,.33691,.44043,.84277,.66016,1.51758,.66016,.82129,0,1.61328-.21973,2.37598-.66016l2.59668,4.88379Z"/>
        <path d="M165.61256,16.82294c1.54004,.52832,2.85254,1.24707,3.9375,2.15625l-2.81543,4.31201c-1.87793-1.17285-3.76953-1.76025-5.67578-1.76025-.82227,0-1.43066,.12549-1.82617,.37402-.39648,.24951-.59473,.59424-.59473,1.03418,0,.38135,.10254,.68945,.30859,.92383,.20508,.23535,.6377,.4917,1.29785,.77002,.66016,.2793,1.70801,.63818,3.14648,1.07812,2.4043,.7041,4.17969,1.62109,5.32324,2.74951,1.14453,1.12988,1.71582,2.70605,1.71582,4.73047,0,1.58398-.46191,2.96973-1.38574,4.1582-.92383,1.1875-2.2002,2.10449-3.82812,2.75-1.62793,.64453-3.46875,.96777-5.52148,.96777-1.99512,0-3.86523-.31543-5.61035-.94629s-3.21973-1.50293-4.42188-2.61816l3.74023-4.17969c.90918,.7041,1.88379,1.26172,2.92578,1.67188,1.04102,.41113,2.08984,.61621,3.14648,.61621,.93848,0,1.66406-.1543,2.17773-.46191,.5127-.30859,.76953-.77051,.76953-1.38672,0-.46875-.10938-.83594-.33008-1.09961-.21973-.26367-.6377-.52051-1.25391-.76953s-1.67188-.59473-3.16797-1.03418c-4.54688-1.34863-6.81934-3.82812-6.81934-7.43604,0-1.37842,.39551-2.63232,1.1875-3.76172,.79199-1.12891,1.92871-2.0166,3.41016-2.66211,1.48047-.64502,3.24805-.96826,5.30176-.96826,1.70117,0,3.32227,.26416,4.8623,.79199Z"/>
        <path d="M203.18873,34.95087c.21973,.41113,.6084,.71875,1.16602,.92383l-1.58398,5.06055c-1.49609-.11816-2.72168-.42578-3.6748-.9248-.95312-.49805-1.72363-1.29004-2.30957-2.37598-1.49609,2.28809-3.85742,3.43262-7.08398,3.43262-2.31738,0-4.17285-.68262-5.56641-2.0459-1.39355-1.36426-2.08984-3.13086-2.08984-5.30273,0-2.58008,.95312-4.56055,2.86035-5.93945,1.90625-1.37842,4.66406-2.06787,8.27148-2.06787h2.02441v-.79199c0-1.26074-.26367-2.11914-.79199-2.57422-.52832-.4541-1.48145-.68164-2.86035-.68164-.7334,0-1.64941,.10986-2.75,.32959-1.09961,.22021-2.22168,.52148-3.36621,.90234l-1.71582-5.06006c1.4082-.58643,2.91895-1.03418,4.53223-1.34229,1.61328-.30762,3.10938-.46191,4.48828-.46191,3.51953,0,6.08594,.69727,7.7002,2.09033,1.6123,1.39355,2.41992,3.52734,2.41992,6.40186v8.53613c0,.85059,.10938,1.48145,.33008,1.8916Zm-9.32812,.11035c.54199-.33691,.98926-.79883,1.3418-1.38672v-3.7832h-1.32031c-1.4082,0-2.44922,.25684-3.12402,.76953-.6748,.51367-1.01172,1.2832-1.01172,2.30957,0,.79199,.20508,1.42383,.61621,1.89258,.41016,.46973,.98242,.7041,1.71582,.7041,.64453,0,1.23926-.16895,1.78223-.50586Z"/>
        <path d="M226.83717,17.87909c1.14453,1.23193,1.7168,2.96289,1.7168,5.19189v17.2041h-7.83203v-15.7959c0-1.02637-.14746-1.73828-.44043-2.13428-.29395-.396-.7334-.59375-1.32031-.59375-1.23145,0-2.40527,.89502-3.51953,2.68408v15.83984h-7.83203V16.82294h6.82031l.57129,2.64014c1.05664-1.17285,2.15625-2.03857,3.30078-2.59619,1.14355-.55664,2.41992-.83594,3.82715-.83594,1.99512,0,3.56445,.61621,4.70801,1.84814Z"/>
        <path d="M254.73366,7.58319V40.27508h-6.95215l-.30859-2.59668c-.70312,.99805-1.60547,1.81152-2.70508,2.44238-1.10059,.63086-2.41406,.94629-3.93848,.94629-2.93359,0-5.14844-1.11426-6.64355-3.34375-1.49609-2.22949-2.24414-5.30957-2.24414-9.24023,0-2.40479,.40234-4.5542,1.20996-6.4458,.80664-1.89209,1.94238-3.36621,3.41016-4.42236,1.46582-1.05566,3.15234-1.58398,5.05957-1.58398,2.1123,0,3.87207,.67529,5.28027,2.02393V6.7912l7.83203,.79199Zm-7.83203,25.52002v-9.81201c-.49902-.55713-.9834-.96826-1.45215-1.23193-.46973-.26416-1.01172-.396-1.62793-.396-1.17383,0-2.10547,.5498-2.79395,1.6499-.68945,1.1001-1.03418,2.83789-1.03418,5.21387,0,2.63965,.29297,4.45117,.87988,5.43359,.58691,.9834,1.42285,1.47461,2.50781,1.47461,1.4082,0,2.58105-.77734,3.52051-2.33203Z"/>
        <path d="M291.51686,26.32684c1.26074,1.08594,1.89258,2.74316,1.89258,4.97168,0,3.31543-1.20312,5.63965-3.6084,6.97461s-5.76367,2.00195-10.07617,2.00195h-10.2959V9.69501h9.1084c4.39941,0,7.76562,.60938,10.09766,1.82617,2.33203,1.21729,3.49805,3.23389,3.49805,6.0498,0,1.78955-.53516,3.21973-1.60645,4.29004-1.07031,1.07129-2.39746,1.81152-3.98145,2.22217,2.05273,.41113,3.70996,1.15918,4.97168,2.24365Zm-13.94824-10.95557v6.37988h2.1123c1.43652,0,2.49316-.26416,3.16797-.79199,.6748-.52832,1.01172-1.37842,1.01172-2.55225,0-1.08447-.35938-1.8623-1.07715-2.33203-.71973-.46875-1.88574-.70361-3.49805-.70361h-1.7168Zm6.11621,18.32568c.87988-.5127,1.32031-1.47363,1.32031-2.88184,0-1.34961-.41113-2.3252-1.23242-2.92676-.82129-.6001-2.00977-.90137-3.56348-.90137h-2.64062v7.47949h2.2002c1.73047,0,3.03613-.25586,3.91602-.76953Z"/>
        <path d="M310.56862,40.27508c-.96875,3.13867-2.58984,5.53613-4.8623,7.19336-2.27344,1.65723-5.27344,2.55957-8.99805,2.70605l-.83594-5.41211c2.22852-.23438,3.88672-.68164,4.97168-1.3418s1.93652-1.70898,2.55273-3.14551h-2.68457l-6.86426-23.45215h8.31641l3.56445,18.56836,4.0918-18.56836h8.05176l-7.30371,23.45215Z"/>
        <path d="M335.29616,39.13055c-.91016,.64551-1.96582,1.12988-3.16797,1.45215-1.20312,.32227-2.37598,.48438-3.52051,.48438-5.42676,0-8.13965-2.99219-8.13965-8.97656v-9.89941h-3.03613v-5.36816h3.03613v-4.97168l7.83203-.92432v5.896h5.32422l-.79199,5.36816h-4.53223v9.81152c0,1.05664,.16797,1.80469,.50586,2.24414,.33691,.44043,.84277,.66016,1.51758,.66016,.82129,0,1.61328-.21973,2.37598-.66016l2.59668,4.88379Z"/>
        <path d="M357.29616,30.81512h-14.34375c.2041,1.78906,.70996,3.01367,1.51758,3.67383,.80664,.66016,1.95801,.99023,3.4541,.99023,.87988,0,1.75195-.16895,2.61816-.50586,.86426-.33691,1.81055-.8584,2.83789-1.5625l3.16797,4.3125c-1.23242,1.02637-2.64062,1.84082-4.22461,2.44141s-3.2998,.90234-5.14746,.90234c-3.98926,0-7.01855-1.12207-9.08594-3.36621-2.06836-2.24414-3.10254-5.25781-3.10254-9.04199,0-2.37598,.43262-4.5166,1.29883-6.42383,.86426-1.90625,2.14844-3.41699,3.84961-4.53174s3.75391-1.67236,6.16016-1.67236c3.43164,0,6.14453,1.06348,8.13965,3.18994,1.99414,2.12744,2.99219,5.11182,2.99219,8.95361,0,.17676-.04395,1.05664-.13184,2.64062Zm-7.56836-4.83984c-.0293-1.55469-.29297-2.75684-.79199-3.6084-.49902-.8501-1.33496-1.27588-2.50781-1.27588-1.08594,0-1.90723,.38184-2.46387,1.14404-.55762,.76318-.91016,2.09766-1.05664,4.00391h6.82031v-.26367Z"/>
        <path d="M374.30202,16.82294c1.54004,.52832,2.85254,1.24707,3.9375,2.15625l-2.81543,4.31201c-1.87793-1.17285-3.76953-1.76025-5.67578-1.76025-.82227,0-1.43066,.12549-1.82617,.37402-.39648,.24951-.59473,.59424-.59473,1.03418,0,.38135,.10254,.68945,.30859,.92383,.20508,.23535,.6377,.4917,1.29785,.77002,.66016,.2793,1.70801,.63818,3.14648,1.07812,2.4043,.7041,4.17969,1.62109,5.32324,2.74951,1.14453,1.12988,1.71582,2.70605,1.71582,4.73047,0,1.58398-.46191,2.96973-1.38574,4.1582-.92383,1.1875-2.2002,2.10449-3.82812,2.75-1.62793,.64453-3.46875,.96777-5.52148,.96777-1.99512,0-3.86523-.31543-5.61035-.94629s-3.21973-1.50293-4.42188-2.61816l3.74023-4.17969c.90918,.7041,1.88379,1.26172,2.92578,1.67188,1.04102,.41113,2.08984,.61621,3.14648,.61621,.93848,0,1.66406-.1543,2.17773-.46191,.5127-.30859,.76953-.77051,.76953-1.38672,0-.46875-.10938-.83594-.33008-1.09961-.21973-.26367-.6377-.52051-1.25391-.76953s-1.67188-.59473-3.16797-1.03418c-4.54688-1.34863-6.81934-3.82812-6.81934-7.43604,0-1.37842,.39551-2.63232,1.1875-3.76172,.79199-1.12891,1.92871-2.0166,3.41016-2.66211,1.48047-.64502,3.24805-.96826,5.30176-.96826,1.70117,0,3.32227,.26416,4.8623,.79199Z"/>
      </g>
      <g>
        <path d="M91.63307,71.80243l12.05957-19.7998h2.9707l2.87988,19.7998h-2.37012l-.83984-5.66992h-8.61035l-3.38965,5.66992h-2.7002Zm7.46973-7.91992h6.92969l-1.34961-9.30078-5.58008,9.30078Z"/>
        <path d="M121.39284,72.04266c-1.48047,0-2.81543-.22559-4.00488-.67578-1.19043-.44922-2.20117-1.10449-3.03027-1.96484-.83008-.85938-1.46582-1.92969-1.90527-3.20996l2.40039-1.2002c.33984,1.16016,.83984,2.0957,1.5,2.80566s1.43945,1.21973,2.33984,1.5293c.89941,.31055,1.87012,.46582,2.91016,.46582,.97949,0,1.7998-.16504,2.45996-.49512s1.1543-.75977,1.48438-1.29004,.49512-1.0957,.49512-1.69531c0-.73926-.23535-1.32031-.70508-1.74023s-1.1543-.75977-2.05469-1.01953l-3.20996-.90039c-1.02051-.2998-1.88574-.68945-2.59473-1.16992-.71094-.47949-1.25-1.0498-1.62012-1.70996s-.55566-1.37988-.55566-2.16016c0-1.09961,.29492-2.09961,.88574-3,.58984-.89941,1.41992-1.61426,2.48926-2.14453,1.07031-.53027,2.33496-.79492,3.7959-.79492,1.93945,0,3.55957,.40039,4.85938,1.19922,1.2998,.80078,2.23047,2.02051,2.79004,3.66016l-2.39941,1.16992c-.26074-1.03906-.6709-1.83008-1.23047-2.37012-.56055-.53906-1.2002-.90918-1.91992-1.10938s-1.46973-.2998-2.25-.2998c-1,0-1.84082,.14941-2.52051,.44922-.67969,.30078-1.18457,.70117-1.51465,1.2002-.33008,.5-.49512,1.0498-.49512,1.65039,0,.67969,.25977,1.29492,.78027,1.84473,.51953,.55078,1.21973,.95508,2.09961,1.21484l3.57031,1.02051c1.45996,.41992,2.54004,1.01465,3.24023,1.78516,.69922,.76953,1.0498,1.71484,1.0498,2.83496,0,1.24023-.3252,2.32031-.97461,3.23926-.65039,.9209-1.51562,1.63086-2.5957,2.13086s-2.26953,.75-3.56934,.75Z"/>
        <path d="M139.96315,72.04266c-1.48047,0-2.81543-.22559-4.00488-.67578-1.19043-.44922-2.20117-1.10449-3.03027-1.96484-.83008-.85938-1.46582-1.92969-1.90527-3.20996l2.40039-1.2002c.33984,1.16016,.83984,2.0957,1.5,2.80566s1.43945,1.21973,2.33984,1.5293c.89941,.31055,1.87012,.46582,2.91016,.46582,.97949,0,1.7998-.16504,2.45996-.49512s1.1543-.75977,1.48438-1.29004,.49512-1.0957,.49512-1.69531c0-.73926-.23535-1.32031-.70508-1.74023s-1.1543-.75977-2.05469-1.01953l-3.20996-.90039c-1.02051-.2998-1.88574-.68945-2.59473-1.16992-.71094-.47949-1.25-1.0498-1.62012-1.70996s-.55566-1.37988-.55566-2.16016c0-1.09961,.29492-2.09961,.88574-3,.58984-.89941,1.41992-1.61426,2.48926-2.14453,1.07031-.53027,2.33496-.79492,3.7959-.79492,1.93945,0,3.55957,.40039,4.85938,1.19922,1.2998,.80078,2.23047,2.02051,2.79004,3.66016l-2.39941,1.16992c-.26074-1.03906-.6709-1.83008-1.23047-2.37012-.56055-.53906-1.2002-.90918-1.91992-1.10938s-1.46973-.2998-2.25-.2998c-1,0-1.84082,.14941-2.52051,.44922-.67969,.30078-1.18457,.70117-1.51465,1.2002-.33008,.5-.49512,1.0498-.49512,1.65039,0,.67969,.25977,1.29492,.78027,1.84473,.51953,.55078,1.21973,.95508,2.09961,1.21484l3.57031,1.02051c1.45996,.41992,2.54004,1.01465,3.24023,1.78516,.69922,.76953,1.0498,1.71484,1.0498,2.83496,0,1.24023-.3252,2.32031-.97461,3.23926-.65039,.9209-1.51562,1.63086-2.5957,2.13086s-2.26953,.75-3.56934,.75Z"/>
        <path d="M159.19362,72.10223c-1.47949,0-2.84473-.33496-4.09473-1.00488s-2.25-1.65527-3-2.95508-1.125-2.87988-1.125-4.74023c0-1.54004,.21973-3.00977,.66016-4.41016,.43945-1.39941,1.08496-2.64453,1.93457-3.73438,.85059-1.08984,1.91016-1.95508,3.18066-2.5957,1.26953-.63965,2.72461-.95996,4.36523-.95996,1.47949,0,2.83496,.34082,4.06445,1.02051,1.23047,.67969,2.21484,1.66504,2.95508,2.95508,.73926,1.29004,1.11035,2.86523,1.11035,4.72461,0,1.52051-.21582,2.98047-.64551,4.37988-.42969,1.40039-1.07031,2.65039-1.91992,3.75-.85059,1.10059-1.90039,1.9707-3.14941,2.61035-1.25098,.64062-2.69531,.95996-4.33594,.95996Zm.27051-2.28027c1.2002,0,2.25-.25977,3.15039-.7793,.89941-.52051,1.6543-1.22559,2.26465-2.11523,.60938-.88965,1.06934-1.88477,1.37988-2.98535,.30957-1.09961,.46484-2.22949,.46484-3.38965,0-1.37988-.25-2.56055-.75-3.54004s-1.19043-1.72949-2.06934-2.25c-.88086-.52051-1.91016-.78027-3.09082-.78027-1.19922,0-2.25488,.25977-3.16504,.78027s-1.6748,1.21973-2.29492,2.09961c-.62012,.88086-1.08496,1.87012-1.39453,2.96973-.31055,1.10059-.46484,2.24023-.46484,3.4209,0,1.37988,.25,2.55957,.75,3.54004,.49902,.97949,1.19434,1.72949,2.08496,2.25,.88965,.51953,1.93457,.7793,3.13477,.7793Z"/>
        <path d="M181.12331,72.10223c-1.54004,0-2.94434-.31934-4.21484-.95996-1.27051-.63965-2.28516-1.58984-3.04492-2.84961-.75977-1.26074-1.13965-2.82031-1.13965-4.68066,0-1.47949,.21484-2.9248,.64453-4.33496s1.0752-2.68457,1.93555-3.8252c.85938-1.13965,1.9248-2.0498,3.19434-2.72949,1.27051-.67969,2.73535-1.02051,4.39551-1.02051,1.25977,0,2.37988,.2002,3.35938,.60059,.98047,.40039,1.81055,1.00977,2.49023,1.83008s1.18945,1.85938,1.53027,3.12012l-2.52051,.83984c-.33984-1.48047-.93457-2.54004-1.78418-3.18066-.85059-.63965-1.95508-.95996-3.31543-.95996-1.2002,0-2.25977,.27051-3.17969,.81055s-1.69043,1.25488-2.31055,2.14453c-.62012,.89062-1.08984,1.88574-1.41016,2.98535-.31934,1.09961-.47949,2.21973-.47949,3.36035,0,1.37988,.26465,2.55957,.79492,3.54004,.5293,.97949,1.25,1.73438,2.16016,2.26465s1.9248,.79492,3.04492,.79492c1.32031,0,2.35938-.27441,3.12012-.8252,.75977-.5498,1.39941-1.28516,1.91992-2.20508l2.30957,1.11035c-.82031,1.25977-1.81934,2.27051-3,3.03027-1.17969,.75977-2.67969,1.13965-4.5,1.13965Z"/>
        <path d="M198.40358,52.00262l-4.59082,19.7998h-2.39941l4.58984-19.7998h2.40039Z"/>
        <path d="M197.20338,71.80243l12.05957-19.7998h2.9707l2.87988,19.7998h-2.37012l-.83984-5.66992h-8.61035l-3.38965,5.66992h-2.7002Zm7.46973-7.91992h6.92969l-1.34961-9.30078-5.58008,9.30078Z"/>
        <path d="M233.77272,52.00262l-.54004,2.25h-6.68945l-4.0498,17.5498h-2.40039l4.0498-17.5498h-6.80957l.54004-2.25h15.89941Z"/>
        <path d="M239.80397,52.00262l-4.59082,19.7998h-2.39941l4.58984-19.7998h2.40039Z"/>
        <path d="M250.42311,72.10223c-1.47949,0-2.84473-.33496-4.09473-1.00488s-2.25-1.65527-3-2.95508-1.125-2.87988-1.125-4.74023c0-1.54004,.21973-3.00977,.66016-4.41016,.43945-1.39941,1.08496-2.64453,1.93457-3.73438,.85059-1.08984,1.91016-1.95508,3.18066-2.5957,1.26953-.63965,2.72461-.95996,4.36523-.95996,1.47949,0,2.83496,.34082,4.06445,1.02051,1.23047,.67969,2.21484,1.66504,2.95508,2.95508,.73926,1.29004,1.11035,2.86523,1.11035,4.72461,0,1.52051-.21582,2.98047-.64551,4.37988-.42969,1.40039-1.07031,2.65039-1.91992,3.75-.85059,1.10059-1.90039,1.9707-3.14941,2.61035-1.25098,.64062-2.69531,.95996-4.33594,.95996Zm.27051-2.28027c1.2002,0,2.25-.25977,3.15039-.7793,.89941-.52051,1.6543-1.22559,2.26465-2.11523,.60938-.88965,1.06934-1.88477,1.37988-2.98535,.30957-1.09961,.46484-2.22949,.46484-3.38965,0-1.37988-.25-2.56055-.75-3.54004s-1.19043-1.72949-2.06934-2.25c-.88086-.52051-1.91016-.78027-3.09082-.78027-1.19922,0-2.25488,.25977-3.16504,.78027s-1.6748,1.21973-2.29492,2.09961c-.62012,.88086-1.08496,1.87012-1.39453,2.96973-.31055,1.10059-.46484,2.24023-.46484,3.4209,0,1.37988,.25,2.55957,.75,3.54004,.49902,.97949,1.19434,1.72949,2.08496,2.25,.88965,.51953,1.93457,.7793,3.13477,.7793Z"/>
        <path d="M262.87331,71.80243l4.58984-19.7998h2.87988l4.91992,13.19922,1.29004,3.95996h.03027l.62988-3.17969,3.24023-13.97949h2.2793l-4.58984,19.7998h-2.84961l-5.00977-13.25977-1.23047-3.90039h-.03027l-.62988,3.17969-3.23926,13.98047h-2.28027Z"/>
      </g>
    </g>
  </g>
</svg>