<?xml version="1.0" encoding="UTF-8"?>
<svg id="b" data-name="Layer 2" xmlns="http://www.w3.org/2000/svg" xmlns:xlink="http://www.w3.org/1999/xlink" viewBox="0 0 256 256">
  <defs>
    <style>
      .e {
        fill: url(#d);
      }
    </style>
    <linearGradient id="d" data-name="BBA Gradient 2" x1="128" y1="4.55874" x2="128" y2="255.46552" gradientUnits="userSpaceOnUse">
      <stop offset="0" stop-color="#53bfe5"/>
      <stop offset=".5" stop-color="#3f93c8"/>
      <stop offset=".98792" stop-color="#3a76b3"/>
    </linearGradient>
  </defs>
  <g id="c" data-name="Layer 1 copy 3">
    <path class="e" d="M98.66998,66.15002c1.70001-3.26001,2.66003-6.97003,2.66003-10.91003,0-13.07001-10.58002-23.64996-23.65002-23.64996-13.06,0-23.64001,10.57996-23.64001,23.64996,0,13.06,10.58002,23.64001,23.64001,23.64001,3.88,0,7.53998-.92999,10.77002-2.59003l54.31,54.31,14.39996,14.40002h44.54004l54.29999,54.29999v41.14001c0,5.70001-3.07001,10.69-7.65002,13.40002l-55.12-55.11005c1.19-2.19,1.87-4.69995,1.87-7.37,0-8.51996-6.90997-15.42999-15.44-15.42999s-15.44,6.91003-15.44,15.42999c0,8.53003,6.91003,15.44,15.44,15.44,2.77002,0,5.37006-.72998,7.62006-2.01001l51.20996,51.21002h-39.63l-76.51001-76.52002c1.68005-3.23999,2.63-6.91998,2.63-10.82996,0-13.06-10.58997-23.65002-23.64996-23.65002s-23.65002,10.59003-23.65002,23.65002,10.59003,23.64996,23.65002,23.64996c3.90997,0,7.59998-.95001,10.83997-2.63l66.33002,66.33002H15.56c-8.59003,0-15.56-6.96997-15.56-15.56V15.56C0,6.96997,6.96997,0,15.56,0H240.44c8.59003,0,15.56,6.96997,15.56,15.56V178.94l-48.34003-48.34003h-44.53998L98.66998,66.15002Z"/>
  </g>
</svg>