<svg xmlns="http://www.w3.org/2000/svg" viewBox="0 0 394.92 402.37"><title>Recurso 1</title><g id="Capa_2" data-name="Capa 2"><g id="Capa_1-2" data-name="Capa 1"><g id="Capa_2-2" data-name="Capa 2"><g id="Capa_1-2-2" data-name="Capa 1-2"><path d="M248.42,279.35c-9.51-.59-16.57-1-23.62-1.49-1.83-.13-1.91.72-1.52,2.13a122.36,122.36,0,0,0,11.29,28.19,179.25,179.25,0,0,0,19.57,28c1.52,1.77,1.46,3.36.07,5.12-2.47,3.14-4.88,6.32-7.33,9.48-1,1.33-2,1.48-3.22.05-11.55-13.78-23.23-27.48-32.93-42.66-6.37-10-12.53-20.05-16.27-31.4a5.28,5.28,0,0,0-3.33-2.78c-2.95-.79-6.06-1-9.09-1.5-1.21-.21-2.38-.66-3.6-.89-.6-.12-1.48-.2-1.82.13s-.23,1.26,0,1.78c3.55,7.52,6.87,15.16,10.79,22.49,10,18.64,22.82,35.33,36.49,51.39,3.78,4.43,7.76,8.68,11.72,12.95,1.29,1.39,1.5,2.7.37,4.21q-4.49,6-9,12c-1.07,1.42-2.13,1.27-3.28,0-16.88-18.42-33.55-37-47.5-57.83-10.4-15.65-20.22-31.54-26.39-49.44-1.19-3.45-3.1-5.66-6.92-6.23-3.11-.47-6.12-1.52-9.18-2.26-.51-.12-1.42-.19-1.55,0a2.5,2.5,0,0,0-.15,1.82q1.9,5.13,4,10.21a297.92,297.92,0,0,0,38,66.84,400.53,400.53,0,0,0,40.47,46.78c1.56,1.52,1.93,2.94.54,4.79-2.44,3.26-4.79,6.59-7.16,9.91-1.32,1.86-2.71,1.23-4,.08-8.28-7.35-16.9-14.36-24.69-22.2-9.89-10-19.37-20.4-28.52-31.06-10.37-12.07-19.17-25.32-27.49-38.89a297.79,297.79,0,0,1-21.8-42.27C99,261.09,97,255.18,95,249.29c-1-3-2.9-4.66-5.87-5.85C65.58,234,43.19,222.56,24,205.68c-7.91-7-15.06-14.65-19.75-24.25-5.08-10.41-6-21.1-.55-31.56,3.92-7.49,10.76-12.09,18.2-15.76A64.94,64.94,0,0,1,44,127.77c6-.63,12-1.46,18-2.13a18.49,18.49,0,0,1,3.49.06c2,.18,2.33,1,2.14,3.16-.61,6.68-.86,13.41-.93,20.12,0,3.81.24,3.79-3.51,3.75-4.41,0-8.83-.08-13.25,0-6.14,0-11.92,1.83-17.65,3.81-.86.3-1.7.66-2.55,1-6,2.34-9.85.43-11.93-5.68-.4-1.16-1.49-2.09-2.26-3.13-.48,1.25-1.3,2.49-1.37,3.76-.33,6.38,2.08,11.88,6,16.77a92.73,92.73,0,0,0,34,26.86,698.9,698.9,0,0,0,71.47,28.11c9.15,3.06,18.16,6.56,27.41,9.27s19,4.88,28.55,7q12.81,2.91,25.75,5.22c5.78,1.05,11.66,1.53,17.47,2.47a196.47,196.47,0,0,0,39.74,2,137.87,137.87,0,0,0,17.43-2c4.3-.72,8.73-1.49,12.69-3.2A31,31,0,0,0,310,231a13.92,13.92,0,0,0,1.37-4.22c.13-.67-.43-1.46-.67-2.2a10,10,0,0,0-1.93.9,35.72,35.72,0,0,0-3,2.63,12.72,12.72,0,0,1-10.54,3.42,4.63,4.63,0,0,1-4-2.42c-4-7-10.14-11.75-16.8-15.68-8.87-5.23-18.15-9.76-27.26-14.57-3-1.6-3.31-2.25-1.71-5.22a47.13,47.13,0,0,1,13.74-16.27,6,6,0,0,1,6.11-.81c14.59,5.89,27.82,13.94,39.08,25,6.92,6.78,12.54,14.44,15.46,23.85a34.54,34.54,0,0,1-13.15,38.68,71.77,71.77,0,0,1-31.6,12.7C265.46,278.24,255.72,278.69,248.42,279.35Z"/><path d="M394.85,107.73q-.39,24.21-.79,48.42c-.05,2.6-.76,3.08-3.26,2.08-6.68-2.67-13.21-5.82-20.06-8-9-2.83-18.08-5.27-27.28-7.2A111.58,111.58,0,0,0,311,141.5,109.16,109.16,0,0,0,258.84,160c-15.38,10.36-26.17,24.25-33.28,41.11A95.94,95.94,0,0,0,218,232.18c-.32,4.73-.29,5.57-5.73,4.69-6-1-12-1.67-18-2.48-4.17-.56-4.9-1.36-5-5.57a143.73,143.73,0,0,1,2.86-32.45c6.18-29.74,21.33-54,44.34-73.55a142.82,142.82,0,0,1,50.23-28c7.65-2.39,15.61-3.82,23.45-5.58C324,86.18,338,86.8,352,87.18c6.14.15,12.27,1.67,18.36,2.8s12.15,2.4,18.17,3.83c6.42,1.53,6.4,1.64,6.4,8.21v5.74Z"/><path d="M318.6,70c-1.53.13-2.26.28-3,.25-11-.39-21.34,2.5-31.65,5.63-15.52,4.73-29.86,12-43.44,20.85a165.55,165.55,0,0,0-28.42,23.87,149.2,149.2,0,0,0-20.6,26.61,142.46,142.46,0,0,0-17.35,42.76,128.9,128.9,0,0,0-3.12,33.4v2.24c0,1.67-.84,2.34-2.38,1.93q-12.33-3.33-24.65-6.76a4.9,4.9,0,0,1-3.86-4.93c-.24-10.8-1.15-21.65-.49-32.4A167,167,0,0,1,147,143.61a180.77,180.77,0,0,1,95.6-109.87,160.39,160.39,0,0,1,30.83-10.36,13.47,13.47,0,0,1,4.63-.67,7.08,7.08,0,0,1,4.23,1.93c6.94,8.4,13.64,17,20.52,25.46,4.3,5.29,8.82,10.41,13.18,15.66A38.31,38.31,0,0,1,318.6,70Z"/><path d="M78.65,155.65c0-5.66-.32-11.34.08-17,.52-7.42,1.42-14.82,2.5-22.18A162.5,162.5,0,0,1,84.69,99c2.19-8.31,4.56-16.59,7.37-24.71a192,192,0,0,1,17.08-36c8-13.32,17.67-25.38,28.11-36.84,2-2.14,3.12-1.93,4.85.71l27,41.1c1.5,2.3,3.09,4.54,4.69,6.77,2.49,3.48,2.51,3.78-.55,6.91a172.27,172.27,0,0,0-20.69,26.23A183.66,183.66,0,0,0,129.3,134a222.2,222.2,0,0,0-5.85,27.47A230.39,230.39,0,0,0,121.26,189c-.18,6.7.79,13.43,1.18,20.15a14.41,14.41,0,0,1-.46,3,13.11,13.11,0,0,1-2.84-.5q-12.8-5.26-25.56-10.65c-3-1.27-5.84-2.84-8.85-4s-4.33-3.49-4.52-6.54Q79.13,173,78.1,155.63Z"/></g></g></g></g></svg>